<svg width="18" height="18" viewBox="0 0 18 18" fill="none" xmlns="http://www.w3.org/2000/svg">
<path d="M12.9726 15.1346H4.3242C3.75078 15.1346 3.20084 14.9068 2.79537 14.5014C2.3899 14.0959 2.16211 13.546 2.16211 12.9725V4.32417C2.16211 3.75075 2.3899 3.20081 2.79537 2.79534C3.20084 2.38987 3.75078 2.16208 4.3242 2.16208H12.9726C13.546 2.16208 14.0959 2.38987 14.5014 2.79534C14.9069 3.20081 15.1347 3.75075 15.1347 4.32417V12.9725C15.1347 13.546 14.9069 14.0959 14.5014 14.5014C14.0959 14.9068 13.546 15.1346 12.9726 15.1346ZM4.3242 3.60347C4.13306 3.60347 3.94975 3.6794 3.81459 3.81456C3.67944 3.94972 3.6035 4.13303 3.6035 4.32417V12.9725C3.6035 13.1637 3.67944 13.347 3.81459 13.4822C3.94975 13.6173 4.13306 13.6932 4.3242 13.6932H12.9726C13.1637 13.6932 13.347 13.6173 13.4822 13.4822C13.6173 13.347 13.6933 13.1637 13.6933 12.9725V4.32417C13.6933 4.13303 13.6173 3.94972 13.4822 3.81456C13.347 3.6794 13.1637 3.60347 12.9726 3.60347H4.3242Z" fill="#231F20"/>
</svg>
