<svg width="18" height="18" viewBox="0 0 18 18" fill="none" xmlns="http://www.w3.org/2000/svg">
<path d="M12.9726 15.1347H4.3242C3.75078 15.1347 3.20084 14.9069 2.79537 14.5014C2.3899 14.0959 2.16211 13.546 2.16211 12.9726V4.32419C2.16211 3.75076 2.3899 3.20083 2.79537 2.79536C3.20084 2.38989 3.75078 2.16209 4.3242 2.16209H12.9726C13.546 2.16209 14.0959 2.38989 14.5014 2.79536C14.9069 3.20083 15.1347 3.75076 15.1347 4.32419V12.9726C15.1347 13.546 14.9069 14.0959 14.5014 14.5014C14.0959 14.9069 13.546 15.1347 12.9726 15.1347ZM4.3242 3.60349C4.13306 3.60349 3.94975 3.67942 3.81459 3.81458C3.67944 3.94973 3.6035 4.13305 3.6035 4.32419V12.9726C3.6035 13.1637 3.67944 13.347 3.81459 13.4822C3.94975 13.6173 4.13306 13.6933 4.3242 13.6933H12.9726C13.1637 13.6933 13.347 13.6173 13.4822 13.4822C13.6173 13.347 13.6933 13.1637 13.6933 12.9726V4.32419C13.6933 4.13305 13.6173 3.94973 13.4822 3.81458C13.347 3.67942 13.1637 3.60349 12.9726 3.60349H4.3242Z" fill="#231F20"/>
</svg>
