<svg width="12" height="12" viewBox="0 0 12 12" fill="none" xmlns="http://www.w3.org/2000/svg">
<path d="M4.6381 8.46705C4.5736 8.46684 4.50983 8.45337 4.45076 8.42748C4.39169 8.40158 4.33857 8.36381 4.29471 8.31652L2.00861 5.8846C1.92315 5.79353 1.87737 5.67224 1.88134 5.54741C1.88531 5.42259 1.93871 5.30445 2.02978 5.21899C2.12085 5.13354 2.24214 5.08776 2.36696 5.09173C2.49179 5.0957 2.60992 5.14909 2.69538 5.24016L4.63339 7.30518L8.58939 2.97758C8.62953 2.92759 8.67948 2.88633 8.73615 2.85634C8.79282 2.82635 8.85502 2.80827 8.91894 2.80319C8.98285 2.79812 9.04713 2.80617 9.10782 2.82684C9.16852 2.84751 9.22434 2.88038 9.27187 2.92341C9.3194 2.96644 9.35763 3.01874 9.38421 3.07709C9.4108 3.13543 9.42517 3.1986 9.42645 3.2627C9.42774 3.3268 9.4159 3.39049 9.39167 3.44986C9.36744 3.50922 9.33134 3.563 9.28557 3.6079L4.98619 8.31182C4.94274 8.35997 4.88981 8.39861 4.83072 8.42532C4.77163 8.45204 4.70765 8.46624 4.6428 8.46705H4.6381Z" fill="#231F20"/>
</svg>
