<svg width="25" height="25" viewBox="0 0 25 25" fill="none" xmlns="http://www.w3.org/2000/svg">
<path d="M7.17141 6.14694C7.44312 6.14694 7.70371 6.039 7.89584 5.84687C8.08797 5.65474 8.1959 5.39416 8.1959 5.12245C8.1959 4.85074 8.08797 4.59016 7.89584 4.39803C7.70371 4.2059 7.44312 4.09796 7.17141 4.09796H5.12244C4.85072 4.09796 4.59014 4.2059 4.39801 4.39803C4.20588 4.59016 4.09795 4.85074 4.09795 5.12245V19.4653C4.09795 19.737 4.20588 19.9976 4.39801 20.1897C4.59014 20.3818 4.85072 20.4898 5.12244 20.4898H7.17141C7.44312 20.4898 7.70371 20.3818 7.89584 20.1897C8.08797 19.9976 8.1959 19.737 8.1959 19.4653C8.1959 19.1936 8.08797 18.933 7.89584 18.7409C7.70371 18.5487 7.44312 18.4408 7.17141 18.4408H6.14692V6.14694H7.17141Z" fill="#231F20"/>
<path d="M21.3299 11.6997L18.4409 7.60172C18.2842 7.38085 18.0464 7.231 17.7796 7.18493C17.5127 7.13885 17.2385 7.2003 17.0168 7.35584C16.906 7.43348 16.8117 7.5323 16.7393 7.6466C16.6669 7.76089 16.6178 7.88839 16.595 8.02174C16.5721 8.15509 16.5759 8.29165 16.6061 8.42354C16.6363 8.55542 16.6923 8.68001 16.7709 8.79013L18.5331 11.2694H18.4409H10.2449C9.97324 11.2694 9.71265 11.3773 9.52053 11.5695C9.3284 11.7616 9.22046 12.0222 9.22046 12.2939C9.22046 12.5656 9.3284 12.8262 9.52053 13.0183C9.71265 13.2104 9.97324 13.3184 10.2449 13.3184H18.4409L16.5968 15.7771C16.5161 15.8848 16.4573 16.0072 16.4239 16.1376C16.3905 16.2679 16.3832 16.4035 16.4022 16.5367C16.4212 16.6699 16.4663 16.798 16.5348 16.9138C16.6034 17.0296 16.694 17.1307 16.8017 17.2114C16.979 17.3444 17.1947 17.4163 17.4164 17.4163C17.5754 17.4163 17.7323 17.3793 17.8745 17.3082C18.0168 17.237 18.1405 17.1338 18.236 17.0065L21.3094 12.9086C21.4406 12.7353 21.5133 12.5248 21.517 12.3075C21.5207 12.0902 21.4552 11.8773 21.3299 11.6997V11.6997Z" fill="#231F20"/>
</svg>
