<svg width="45" height="45" viewBox="0 0 45 45" fill="none" xmlns="http://www.w3.org/2000/svg">
<path d="M16.7282 22.3043L20.4456 26.0217L28.8098 17.6576M17.1035 38.2908C17.7127 38.2102 18.3281 38.3754 18.8134 38.7492L21.0498 40.4654C21.7891 41.0333 22.8175 41.0333 23.5547 40.4654L25.8758 38.6831C26.3095 38.3506 26.8567 38.204 27.3978 38.2763L30.3012 38.6584C31.2243 38.7802 32.1143 38.266 32.4716 37.4048L33.5888 34.7036C33.7973 34.1976 34.198 33.797 34.7039 33.5884L37.405 32.4711C38.2661 32.1159 38.7803 31.2238 38.6585 30.3006L38.2909 27.5024C38.2103 26.8931 38.3755 26.2777 38.7493 25.7924L40.4654 23.5558C41.0333 22.8165 41.0333 21.7881 40.4654 21.0508L38.6832 18.7296C38.3508 18.2959 38.2042 17.7486 38.2764 17.2075L38.6585 14.3039C38.7803 13.3808 38.2661 12.4907 37.405 12.1334L34.7039 11.0162C34.198 10.8076 33.7973 10.407 33.5888 9.901L32.4716 7.19977C32.1164 6.3386 31.2243 5.82437 30.3012 5.94622L27.3978 6.32827C26.8567 6.40262 26.3095 6.25599 25.8779 5.92556L23.5568 4.14333C22.8175 3.57541 21.7891 3.57541 21.0519 4.14333L18.7308 5.92556C18.2971 6.25599 17.7499 6.40262 17.2088 6.3324L14.3054 5.95035C13.3823 5.8285 12.4923 6.34273 12.135 7.2039L11.0199 9.90513C10.8093 10.409 10.4086 10.8097 9.90477 11.0203L7.20369 12.1355C6.34257 12.4928 5.82837 13.3829 5.95021 14.306L6.33224 17.2096C6.40245 17.7507 6.25583 18.2979 5.92543 18.7296L4.14329 21.0508C3.5754 21.7901 3.5754 22.8186 4.14329 23.5558L5.92543 25.8771C6.2579 26.3108 6.40452 26.858 6.33224 27.3991L5.95021 30.3027C5.82837 31.2258 6.34257 32.1159 7.20369 32.4732L9.90477 33.5904C10.4107 33.799 10.8113 34.1997 11.0199 34.7056L12.1371 37.4069C12.4923 38.268 13.3844 38.7823 14.3074 38.6604L17.1035 38.2908Z" stroke="#1B9320" stroke-width="3" stroke-linecap="round" stroke-linejoin="round"/>
</svg>
