<svg width="148" height="101" viewBox="0 0 148 101" fill="none" xmlns="http://www.w3.org/2000/svg">
<path d="M67.4561 20.5977C67.5007 20.1846 67.4421 19.8409 67.2803 19.5666C67.1272 19.2917 66.9083 19.0657 66.6238 18.8886C66.3479 18.7108 66.0355 18.5664 65.6867 18.4556C65.3458 18.3353 65.0147 18.2274 64.6932 18.1317C63.9963 17.9186 63.3052 17.6703 62.6199 17.3865C61.9339 17.0942 61.3036 16.7363 60.7288 16.3129C60.1541 15.8894 59.6898 15.3786 59.3359 14.7803C58.9908 14.1813 58.8055 13.4603 58.7801 12.6173C58.7621 11.6518 58.9671 10.8031 59.3951 10.0711C59.8231 9.33921 60.3959 8.72612 61.1134 8.23187C61.8388 7.72825 62.6304 7.34118 63.4882 7.07067C64.3538 6.7908 65.2071 6.62519 66.0479 6.57386C67.2436 6.4935 68.3278 6.64876 69.3006 7.03964C70.2821 7.4298 71.0768 8.03996 71.6848 8.87011C72.2921 9.69161 72.6374 10.7175 72.7206 11.9477L68.3201 12.3076C68.2978 11.8216 68.1986 11.4072 68.0225 11.0644C67.8543 10.7123 67.602 10.4498 67.2655 10.2769C66.9283 10.0954 66.5041 10.0212 65.9928 10.0543C65.5681 10.0803 65.1497 10.1842 64.7377 10.366C64.325 10.5392 63.9749 10.7856 63.6874 11.1053C63.3999 11.425 63.232 11.822 63.1837 12.2964C63.1522 12.6562 63.2339 12.9631 63.4289 13.2172C63.6232 13.4627 63.8796 13.6682 64.198 13.8338C64.5158 13.9908 64.8444 14.1207 65.1838 14.2236C65.5319 14.3258 65.8354 14.4143 66.0941 14.4889C66.8257 14.6992 67.5308 14.9595 68.2096 15.2699C68.8963 15.5709 69.5104 15.9432 70.0519 16.3867C70.6021 16.8296 71.0379 17.3646 71.3593 17.9917C71.6885 18.6094 71.8619 19.3444 71.8793 20.1967C71.8901 21.1803 71.6987 22.0366 71.3054 22.7657C70.912 23.4948 70.3782 24.1047 69.704 24.5954C69.0297 25.0861 68.2767 25.4657 67.4449 25.7341C66.6131 26.0025 65.7599 26.1681 64.8851 26.2309C63.9059 26.2936 62.9809 26.2211 62.1101 26.0135C61.2387 25.7973 60.4652 25.4468 59.7896 24.9619C59.1133 24.4684 58.5699 23.842 58.1593 23.0828C57.7481 22.315 57.509 21.4155 57.4421 20.3843L61.8955 20.0331C61.9092 20.5199 61.9745 20.9458 62.0915 21.3108C62.2164 21.6665 62.3973 21.9609 62.6341 22.1942C62.8789 22.4181 63.1841 22.5804 63.5495 22.6812C63.9142 22.7734 64.3475 22.7989 64.8494 22.7579C65.2734 22.7232 65.6749 22.625 66.0537 22.4634C66.4404 22.2924 66.7606 22.0528 67.0141 21.7445C67.2677 21.4363 67.415 21.054 67.4561 20.5977Z" fill="#1576D0"/>
<path d="M77.6868 5.88341L81.1656 5.59892L84.0421 18.5618L89.3305 4.93122L93.0948 4.62338L85.1386 24.3002L82.192 24.5412L77.6868 5.88341ZM75.4152 6.06917L79.1666 5.76239L78.524 20.5942L78.1291 24.8734L73.6897 25.2365L75.4152 6.06917ZM91.4463 4.75819L95.2237 4.44929L93.4981 23.6166L89.0328 23.9817L89.4618 19.3208L91.4463 4.75819Z" fill="#1576D0"/>
<path d="M105.678 7.81511L99.9235 23.0911L95.0039 23.4934L103.479 3.77416L106.621 3.51728L105.678 7.81511ZM108.075 22.4245L104.914 7.42023L104.712 3.67332L107.672 3.43129L112.709 22.0455L108.075 22.4245ZM108.511 15.2932L108.176 18.8619L98.7391 19.6336L99.0745 16.0649L108.511 15.2932Z" fill="#1576D0"/>
<path d="M115.837 2.7636L122.835 2.20442C123.987 2.1276 125.064 2.2486 126.066 2.56741C127.067 2.88623 127.879 3.43404 128.5 4.21085C129.12 4.97901 129.439 6.00268 129.457 7.28186C129.465 8.33534 129.303 9.23713 128.972 9.98723C128.641 10.7287 128.163 11.3776 127.537 11.934C126.912 12.4904 126.165 13.0001 125.297 13.4632L123.756 14.4256L117.473 14.9393L117.782 11.3728L122.055 11.0495C122.626 10.9941 123.123 10.8402 123.546 10.5878C123.979 10.3346 124.321 9.99735 124.574 9.57592C124.827 9.1545 124.969 8.65503 125 8.07751C125.032 7.60455 124.98 7.19058 124.847 6.83562C124.712 6.472 124.489 6.19405 124.177 6.00176C123.865 5.80948 123.466 5.72017 122.979 5.73384L119.967 5.96713L118.551 21.5678L114.111 21.9309L115.837 2.7636ZM124.249 21.1018L120.956 12.9557L125.459 12.5614L128.969 20.4937L128.987 20.7144L124.249 21.1018Z" fill="#1576D0"/>
<path d="M140.915 0.712736L139.19 19.88L134.738 20.2441L136.476 1.07578L140.915 0.712736ZM146.432 0.26159L146.11 3.82923L130.754 5.08501L131.089 1.51631L146.432 0.26159Z" fill="#1576D0"/>
<path d="M59.77 40.5522L59.7699 40.3805C59.7795 39.7417 59.8768 39.1355 60.0616 38.5617C60.2465 37.9879 60.5162 37.4742 60.8707 37.0204C61.2305 36.5662 61.6697 36.1997 62.1881 35.9211C62.7061 35.637 63.3007 35.471 63.9721 35.423C64.616 35.3722 65.1843 35.4431 65.677 35.6357C66.1698 35.8284 66.5871 36.1155 66.9289 36.497C67.2703 36.8732 67.5287 37.3227 67.7042 37.8456C67.8846 38.3625 67.9765 38.9234 67.9799 39.5282L67.9808 39.708C67.9706 40.3414 67.8702 40.9425 67.6794 41.5114C67.4886 42.0803 67.213 42.5891 66.8526 43.038C66.4976 43.4863 66.0609 43.8498 65.5424 44.1285C65.024 44.4071 64.4318 44.5702 63.7658 44.6177C63.1327 44.6674 62.5674 44.599 62.0698 44.4122C61.577 44.2196 61.1602 43.9379 60.8194 43.5672C60.4781 43.191 60.2175 42.7472 60.0376 42.2356C59.8626 41.7181 59.7734 41.157 59.77 40.5522ZM62.4357 40.125L62.4358 40.2967C62.4408 40.5197 62.4533 40.7639 62.4733 41.0291C62.4981 41.2884 62.5519 41.5367 62.6346 41.7741C62.7168 42.0061 62.8438 42.1929 63.0154 42.3345C63.192 42.4703 63.4321 42.529 63.7356 42.5108C64.0607 42.4906 64.3244 42.3972 64.5265 42.2306C64.734 42.0635 64.8936 41.852 65.0053 41.5959C65.1171 41.3399 65.1946 41.0681 65.2379 40.7804C65.2866 40.4923 65.312 40.2173 65.3142 39.9554L65.3141 39.7837C65.3096 39.5661 65.2947 39.3249 65.2693 39.0602C65.2488 38.7896 65.1972 38.5356 65.1145 38.2982C65.0318 38.0608 64.9019 37.8716 64.7248 37.7304C64.5472 37.5839 64.3066 37.5197 64.0031 37.5379C63.6779 37.5582 63.4119 37.6546 63.2049 37.827C63.0033 37.999 62.8469 38.2157 62.7357 38.4771C62.6239 38.7332 62.5467 39.0077 62.5039 39.3007C62.4606 39.5884 62.4379 39.8631 62.4357 40.125Z" fill="black"/>
<path d="M71.9273 36.8602L71.3994 43.7225L68.7335 43.978L69.4165 35.0647L71.9041 34.8263L71.9273 36.8602ZM71.4609 38.9901L70.9131 39.0753C70.9115 38.5467 70.9698 38.0178 71.0881 37.4885C71.2058 36.9539 71.3933 36.4644 71.6505 36.0199C71.9132 35.575 72.2546 35.2125 72.6748 34.9323C73.0998 34.6463 73.6154 34.4796 74.2214 34.4325C74.7146 34.4016 75.1271 34.4683 75.459 34.6328C75.7964 34.7967 76.0643 35.0327 76.2628 35.3407C76.4609 35.6434 76.6009 35.9952 76.6829 36.3962C76.7699 36.7913 76.8122 37.2043 76.8099 37.6352L76.415 43.2418L73.733 43.4988L74.1336 37.8672C74.1363 37.6107 74.1067 37.3873 74.0448 37.197C73.9884 37.0061 73.882 36.8637 73.7258 36.7696C73.575 36.675 73.3589 36.6385 73.0775 36.66C72.7637 36.6846 72.5047 36.7694 72.3005 36.9144C72.1017 37.0588 71.9425 37.2458 71.8228 37.4753C71.7079 37.699 71.6224 37.9443 71.5662 38.2114C71.5149 38.4725 71.4798 38.7321 71.4609 38.9901Z" fill="black"/>
<path d="M83.1782 37.5318L80.1072 37.8261L80.2446 35.9322L82.498 35.7244C82.8275 35.6928 83.1399 35.6247 83.4352 35.5201C83.7353 35.4096 83.9811 35.2443 84.1726 35.0242C84.3696 34.8036 84.4801 34.5068 84.5043 34.1338C84.5209 33.7942 84.4687 33.5348 84.348 33.3556C84.2267 33.1709 84.0487 33.049 83.8141 32.9897C83.5843 32.9245 83.3152 32.904 83.0068 32.9281L81.5232 33.0621L80.7743 42.8239L78.0032 43.0895L78.9143 31.0961L82.8855 30.7237C83.3992 30.6799 83.9124 30.6879 84.4251 30.7478C84.9379 30.8077 85.4057 30.94 85.8288 31.1448C86.2513 31.3442 86.5957 31.6382 86.8619 32.027C87.1276 32.4104 87.2708 32.9092 87.2915 33.5232C87.3174 34.1913 87.1828 34.7493 86.8877 35.1974C86.5976 35.6395 86.2001 35.9856 85.6953 36.2357C85.1899 36.4804 84.6328 36.6401 84.0239 36.7148L83.1782 37.5318ZM82.719 42.6375L78.9917 42.9948L80.1109 40.6797L82.5992 40.4493C82.9066 40.4144 83.1907 40.3354 83.4515 40.2123C83.7177 40.0886 83.9327 39.9154 84.0967 39.6925C84.2656 39.4637 84.3615 39.1847 84.3845 38.8554C84.4067 38.5752 84.3782 38.3354 84.2992 38.1358C84.2249 37.9303 84.0957 37.7764 83.9115 37.6741C83.7326 37.5713 83.4993 37.5256 83.2114 37.5368L80.7393 37.7656L80.901 35.8693L83.5919 35.6196L84.1487 36.3103C84.6948 36.2634 85.1876 36.3143 85.6271 36.463C86.0666 36.6117 86.4181 36.8669 86.6818 37.2287C86.9503 37.5846 87.0931 38.0506 87.1101 38.6269C87.1405 39.5125 86.9539 40.2391 86.5504 40.8066C86.1463 41.3687 85.6041 41.7968 84.9236 42.091C84.2431 42.3852 83.5082 42.5674 82.719 42.6375Z" fill="black"/>
<path d="M88.292 37.8185L88.2919 37.6468C88.3015 37.008 88.3988 36.4018 88.5836 35.828C88.7685 35.2542 89.0382 34.7405 89.3927 34.2867C89.7525 33.8325 90.1917 33.466 90.7101 33.1874C91.2281 32.9033 91.8227 32.7373 92.4941 32.6893C93.138 32.6385 93.7063 32.7094 94.199 32.902C94.6918 33.0947 95.1091 33.3818 95.4509 33.7633C95.7923 34.1395 96.0507 34.589 96.2262 35.1119C96.4066 35.6288 96.4985 36.1897 96.5019 36.7945L96.5028 36.9743C96.4926 37.6076 96.3922 38.2088 96.2014 38.7777C96.0106 39.3465 95.735 39.8554 95.3746 40.3043C95.0196 40.7526 94.5829 41.1161 94.0644 41.3948C93.546 41.6734 92.9538 41.8365 92.2878 41.884C91.6547 41.9337 91.0894 41.8653 90.5918 41.6785C90.099 41.4859 89.6822 41.2042 89.3414 40.8335C89.0001 40.4573 88.7395 40.0135 88.5596 39.5019C88.3846 38.9844 88.2954 38.4233 88.292 37.8185ZM90.9577 37.3913L90.9578 37.563C90.9628 37.786 90.9753 38.0302 90.9953 38.2954C91.0201 38.5547 91.0739 38.803 91.1566 39.0404C91.2388 39.2724 91.3658 39.4592 91.5374 39.6008C91.714 39.7365 91.954 39.7953 92.2576 39.7771C92.5827 39.7569 92.8464 39.6635 93.0485 39.4969C93.256 39.3298 93.4156 39.1183 93.5273 38.8622C93.6391 38.6062 93.7166 38.3344 93.7599 38.0467C93.8086 37.7586 93.834 37.4836 93.8362 37.2217L93.8361 37.05C93.8316 36.8324 93.8167 36.5912 93.7913 36.3265C93.7708 36.0559 93.7192 35.8019 93.6365 35.5645C93.5538 35.3271 93.4239 35.1379 93.2468 34.9967C93.0692 34.8502 92.8286 34.786 92.5251 34.8042C92.1999 34.8245 91.9339 34.9209 91.7269 35.0933C91.5253 35.2653 91.3689 35.482 91.2577 35.7434C91.1459 35.9995 91.0687 36.274 91.0259 36.567C90.9826 36.8547 90.9599 37.1294 90.9577 37.3913Z" fill="black"/>
<path d="M101.914 38.5736L102.132 34.8729C102.135 34.6764 102.114 34.4903 102.07 34.3146C102.031 34.1384 101.95 33.999 101.826 33.8965C101.706 33.788 101.53 33.7422 101.297 33.759C101.086 33.7738 100.911 33.8287 100.773 33.9237C100.635 34.0187 100.53 34.1433 100.458 34.2974C100.385 34.4516 100.339 34.625 100.319 34.8177L97.6469 35.0902C97.6199 34.5803 97.713 34.1298 97.9263 33.7387C98.1396 33.3475 98.4295 33.0172 98.7962 32.7476C99.1629 32.4781 99.5706 32.2673 100.019 32.1152C100.474 31.9626 100.925 31.8703 101.375 31.8381C101.992 31.7899 102.56 31.8662 103.081 32.0671C103.607 32.262 104.027 32.5788 104.342 33.0175C104.661 33.4502 104.82 33.9992 104.818 34.6645L104.588 38.3173C104.57 38.6461 104.56 38.9959 104.558 39.3669C104.555 39.7324 104.641 40.0649 104.817 40.3642L104.824 40.5189L102.223 40.7763C102.071 40.4366 101.976 40.0777 101.94 39.6995C101.904 39.3214 101.895 38.9461 101.914 38.5736ZM102.479 35.3385L102.376 36.8203L101.33 36.9124C101.125 36.9374 100.931 36.9914 100.748 37.0744C100.57 37.1514 100.414 37.2536 100.279 37.381C100.144 37.5085 100.036 37.6606 99.9546 37.8373C99.8788 38.0136 99.8377 38.2111 99.8314 38.4297C99.8238 38.5777 99.8473 38.709 99.9019 38.8237C99.9614 38.9324 100.043 39.0173 100.147 39.0782C100.256 39.1386 100.387 39.1642 100.539 39.1551C100.772 39.1383 100.992 39.0736 101.199 38.961C101.406 38.8485 101.58 38.701 101.721 38.5185C101.867 38.3355 101.959 38.1304 101.997 37.9033L102.576 39.0007C102.463 39.2951 102.326 39.5672 102.164 39.8171C102.008 40.0664 101.825 40.2884 101.615 40.483C101.409 40.6717 101.173 40.8252 100.906 40.9434C100.64 41.0617 100.339 41.1341 100.003 41.1608C99.5215 41.1961 99.0674 41.1224 98.641 40.9398C98.2146 40.7571 97.8642 40.4854 97.5898 40.1247C97.3153 39.7639 97.1621 39.3316 97.1302 38.8276C97.0959 38.2422 97.1927 37.745 97.4206 37.3361C97.6486 36.9272 97.9628 36.5945 98.3635 36.338C98.769 36.0757 99.2159 35.8747 99.704 35.7353C100.198 35.5953 100.69 35.5017 101.182 35.4546L102.479 35.3385Z" fill="black"/>
<path d="M109.051 33.6046L108.551 40.1617L105.885 40.4172L106.568 31.5039L109.048 31.2663L109.051 33.6046ZM111.69 30.9394L111.586 33.5171C111.443 33.5089 111.301 33.5035 111.159 33.5007C111.017 33.498 110.873 33.5009 110.726 33.5095C110.429 33.5326 110.162 33.5936 109.926 33.6925C109.695 33.7855 109.498 33.9162 109.334 34.0845C109.175 34.2469 109.05 34.4443 108.957 34.6767C108.865 34.909 108.806 35.1736 108.78 35.4705L108.303 35.1891C108.318 34.7734 108.363 34.3302 108.437 33.8597C108.517 33.3832 108.648 32.9291 108.83 32.4973C109.012 32.0656 109.267 31.7059 109.594 31.4184C109.92 31.1254 110.34 30.9543 110.853 30.9052C110.993 30.8917 111.132 30.8893 111.269 30.898C111.406 30.9066 111.547 30.9204 111.69 30.9394Z" fill="black"/>
<path d="M116.868 37.1812L117.665 26.7279L120.347 26.4708L119.384 39.1233L116.994 39.3524L116.868 37.1812ZM111.826 35.5956L111.825 35.4158C111.838 34.8748 111.908 34.323 112.034 33.7603C112.16 33.1976 112.356 32.6773 112.621 32.1995C112.891 31.7211 113.243 31.3275 113.677 31.0188C114.116 30.7096 114.655 30.5353 115.295 30.4958C115.837 30.4656 116.295 30.5852 116.67 30.8546C117.045 31.1239 117.349 31.4819 117.583 31.9283C117.816 32.3693 117.992 32.8404 118.111 33.3414C118.229 33.8425 118.304 34.3069 118.334 34.7347L118.331 34.9558C118.294 35.4227 118.2 35.925 118.05 36.4628C117.905 36.9946 117.694 37.5027 117.419 37.987C117.149 38.4654 116.811 38.8657 116.406 39.188C116 39.5049 115.524 39.6814 114.977 39.7175C114.381 39.7583 113.881 39.6617 113.477 39.4279C113.073 39.194 112.747 38.8709 112.501 38.4584C112.259 38.0454 112.085 37.5878 111.977 37.0858C111.874 36.5832 111.824 36.0864 111.826 35.5956ZM114.498 35.1514L114.498 35.3231C114.501 35.5191 114.509 35.7446 114.522 35.9995C114.536 36.2545 114.573 36.5017 114.634 36.7411C114.701 36.9801 114.809 37.1768 114.96 37.3313C115.116 37.4799 115.333 37.5491 115.61 37.5389C116.011 37.5168 116.329 37.3909 116.563 37.1613C116.803 36.9312 116.975 36.6503 117.079 36.3187C117.189 35.9811 117.246 35.6403 117.251 35.2964L117.262 34.6412C117.268 34.4171 117.259 34.1808 117.235 33.9323C117.217 33.6833 117.167 33.4509 117.086 33.2352C117.006 33.0194 116.88 32.8461 116.71 32.7152C116.539 32.5844 116.305 32.5305 116.007 32.5536C115.693 32.5728 115.435 32.6711 115.234 32.8485C115.038 33.0253 114.888 33.2469 114.783 33.5132C114.682 33.7736 114.611 34.0503 114.568 34.3434C114.53 34.6305 114.507 34.8998 114.498 35.1514Z" fill="black"/>
<path d="M124.362 29.7984L123.687 38.7109L121.013 38.9672L121.696 30.054L124.362 29.7984ZM121.719 27.8194C121.668 27.399 121.776 27.0507 122.044 26.7742C122.317 26.4973 122.654 26.3369 123.053 26.2932C123.436 26.251 123.787 26.3319 124.106 26.5357C124.425 26.7341 124.607 27.0356 124.651 27.4402C124.702 27.8605 124.591 28.2092 124.318 28.4861C124.05 28.7626 123.716 28.9227 123.317 28.9664C122.934 29.0085 122.583 28.9304 122.264 28.732C121.95 28.5277 121.769 28.2235 121.719 27.8194Z" fill="black"/>
<path d="M128.437 31.4441L127.909 38.3063L125.243 38.5618L125.926 29.6486L128.413 29.4101L128.437 31.4441ZM127.97 33.574L127.422 33.6592C127.421 33.1305 127.479 32.6016 127.597 32.0724C127.715 31.5377 127.903 31.0482 128.16 30.6038C128.422 30.1589 128.764 29.7963 129.184 29.5162C129.609 29.2301 130.125 29.0635 130.731 29.0163C131.224 28.9854 131.636 29.0522 131.968 29.2166C132.306 29.3805 132.574 29.6165 132.772 29.9246C132.97 30.2272 133.11 30.5791 133.192 30.9801C133.279 31.3752 133.321 31.7881 133.319 32.219L132.924 37.8256L130.242 38.0827L130.643 32.451C130.645 32.1945 130.616 31.9711 130.554 31.7808C130.498 31.59 130.391 31.4475 130.235 31.3534C130.084 31.2589 129.868 31.2223 129.587 31.2439C129.273 31.2685 129.014 31.3533 128.81 31.4982C128.611 31.6427 128.452 31.8297 128.332 32.0592C128.217 32.2828 128.132 32.5282 128.075 32.7952C128.024 33.0563 127.989 33.3159 127.97 33.574Z" fill="black"/>
<path d="M140.389 28.2623L142.836 28.0278L142.209 36.5841C142.176 37.4376 141.958 38.17 141.553 38.7812C141.154 39.3973 140.623 39.8817 139.959 40.2342C139.295 40.5868 138.551 40.7916 137.728 40.8487C137.338 40.8806 136.95 40.8633 136.562 40.7969C136.179 40.73 135.811 40.6127 135.457 40.4449C135.103 40.2826 134.783 40.0652 134.495 39.793L135.608 38.0999C135.868 38.3693 136.16 38.5676 136.483 38.6948C136.811 38.8214 137.162 38.8695 137.535 38.8392C137.92 38.8133 138.254 38.7131 138.537 38.5388C138.825 38.3639 139.054 38.1322 139.222 37.8434C139.391 37.5547 139.492 37.2179 139.526 36.833L140.008 30.2532L140.389 28.2623ZM134.424 33.4215L134.432 33.249C134.444 32.6918 134.521 32.1311 134.663 31.5669C134.805 31.0026 135.02 30.4833 135.307 30.0087C135.599 29.5337 135.971 29.1464 136.422 28.847C136.878 28.5416 137.426 28.3665 138.064 28.3216C138.655 28.2813 139.139 28.3876 139.518 28.6402C139.902 28.8923 140.204 29.234 140.426 29.6653C140.647 30.0966 140.809 30.5689 140.913 31.0823C141.016 31.5903 141.083 32.0828 141.112 32.5597L141.116 32.7719C141.075 33.2502 140.979 33.7582 140.829 34.2959C140.684 34.8331 140.476 35.3409 140.206 35.8193C139.941 36.2972 139.603 36.6948 139.192 37.0123C138.786 37.3238 138.301 37.4984 137.737 37.536C137.148 37.5816 136.643 37.491 136.223 37.2641C135.803 37.0318 135.459 36.7132 135.191 36.3081C134.928 35.8972 134.735 35.4415 134.61 34.941C134.485 34.435 134.423 33.9286 134.424 33.4215ZM137.098 32.9935L137.098 33.1652C137.096 33.378 137.108 33.614 137.133 33.8733C137.163 34.1267 137.221 34.3691 137.309 34.6005C137.396 34.832 137.526 35.0186 137.698 35.1602C137.869 35.3019 138.096 35.3646 138.378 35.3485C138.796 35.3302 139.131 35.2109 139.382 34.9906C139.634 34.7702 139.817 34.4937 139.933 34.161C140.047 33.8229 140.109 33.4708 140.117 33.1048L140.128 32.4495C140.132 32.2039 140.122 31.9568 140.098 31.7083C140.079 31.4539 140.024 31.222 139.933 31.0127C139.848 30.8028 139.715 30.6384 139.534 30.5194C139.354 30.395 139.106 30.3451 138.792 30.3697C138.473 30.3895 138.204 30.4888 137.987 30.6677C137.774 30.8407 137.604 31.0587 137.477 31.3217C137.35 31.5847 137.256 31.8635 137.197 32.158C137.138 32.4526 137.105 32.7311 137.098 32.9935Z" fill="black"/>
<path d="M31.729 12.1903C34.0342 11.2355 36.5049 10.744 39 10.744V20.244C37.7524 20.244 36.5171 20.4897 35.3645 20.9672C34.2119 21.4446 33.1646 22.1443 32.2825 23.0265C31.4003 23.9086 30.7006 24.9559 30.2232 26.1085C29.7457 27.2611 29.5 28.4964 29.5 29.744H20C20 27.2489 20.4915 24.7782 21.4463 22.473C22.4012 20.1678 23.8007 18.0734 25.5649 16.309C27.3293 14.5447 29.4238 13.1452 31.729 12.1903Z" fill="#1576D0"/>
<path d="M20 29.744C20 32.2391 20.4915 34.7099 21.4463 37.015C22.4012 39.3202 23.8007 41.4147 25.5649 43.1791C27.3293 44.9434 29.4238 46.3429 31.729 47.2977C34.0342 48.2525 36.5049 48.744 39 48.744C41.4951 48.744 43.9658 48.2525 46.271 47.2977C48.5762 46.3429 50.6707 44.9434 52.4351 43.1791C54.1994 41.4147 55.5988 39.3202 56.5537 37.015C57.5085 34.7099 58 32.2391 58 29.744H48.5C48.5 30.9916 48.2543 32.2269 47.7768 33.3795C47.2994 34.5321 46.5997 35.5794 45.7175 36.4616C44.8354 37.3437 43.7881 38.0434 42.6355 38.5208C41.4829 38.9983 40.2476 39.244 39 39.244C37.7524 39.244 36.5171 38.9983 35.3645 38.5208C34.2119 38.0434 33.1646 37.3437 32.2825 36.4616C31.4003 35.5794 30.7006 34.5321 30.2232 33.3795C29.7457 32.2269 29.5 30.9916 29.5 29.744H20Z" fill="#AAC4EC"/>
<path d="M39 23.744C35.6863 23.744 33 26.4303 33 29.744H45C45 26.4303 42.3137 23.744 39 23.744Z" fill="#AAC4EC"/>
<path d="M39 35.744C35.6863 35.744 33 33.0577 33 29.744H45C45 33.0577 42.3137 35.744 39 35.744Z" fill="#1576D0"/>
</svg>
