<svg width="29" height="29" viewBox="0 0 29 29" fill="none" xmlns="http://www.w3.org/2000/svg">
<circle cx="14" cy="16" r="13" fill="#A3CDF6"/>
<path d="M14.5001 14C15.1923 14 15.869 13.7947 16.4446 13.4101C17.0201 13.0256 17.4687 12.4789 17.7336 11.8394C17.9985 11.1999 18.0679 10.4961 17.9328 9.81718C17.7978 9.13825 17.4644 8.51461 16.9749 8.02513C16.4855 7.53564 15.8618 7.2023 15.1829 7.06725C14.5039 6.9322 13.8002 7.00152 13.1607 7.26642C12.5211 7.53133 11.9745 7.97993 11.5899 8.55551C11.2053 9.13108 11.0001 9.80777 11.0001 10.5C11.0001 11.4283 11.3688 12.3185 12.0252 12.9749C12.6816 13.6313 13.5718 14 14.5001 14Z" fill="#231F20"/>
<path d="M20.0715 24C20.3178 24 20.5539 23.8946 20.7281 23.7071C20.9022 23.5196 21.0001 23.2652 21.0001 23C21.0001 21.1435 20.3152 19.363 19.0963 18.0503C17.8773 16.7375 16.224 16 14.5001 16C12.7762 16 11.1229 16.7375 9.90387 18.0503C8.68488 19.363 8.00006 21.1435 8.00006 23C8.00006 23.2652 8.09789 23.5196 8.27203 23.7071C8.44617 23.8946 8.68236 24 8.92863 24H20.0715Z" fill="#231F20"/>
</svg>
